<svg width="52" height="52" viewBox="0 0 52 52" fill="none" xmlns="http://www.w3.org/2000/svg">
<g id="mdi:source-repositories">
<path id="Vector" d="M17.3335 0H43.3335C44.4828 0 45.585 0.456546 46.3976 1.2692C47.2103 2.08186 47.6668 3.18406 47.6668 4.33333V39C47.6668 40.1493 47.2103 41.2515 46.3976 42.0641C45.585 42.8768 44.4828 43.3333 43.3335 43.3333H17.3335C16.1842 43.3333 15.082 42.8768 14.2694 42.0641C13.4567 41.2515 13.0002 40.1493 13.0002 39V4.33333C13.0002 3.18406 13.4567 2.08186 14.2694 1.2692C15.082 0.456546 16.1842 0 17.3335 0ZM31.9585 24.9167C37.9168 24.9167 39.5202 20.5183 39.9318 18.2C41.9035 17.5717 43.3335 15.73 43.3335 13.5417C43.3335 10.8333 41.1668 8.66667 38.4585 8.66667C35.7502 8.66667 33.5835 10.8333 33.5835 13.5417C33.5835 15.5783 34.8185 17.3333 36.5952 18.0483C36.1185 19.5 34.6668 21.6667 30.3335 21.6667C27.3435 21.6667 25.2635 22.425 23.8335 23.4867V14.885C25.7185 14.2133 27.0835 12.415 27.0835 10.2917C27.0835 7.58333 24.9168 5.41667 22.2085 5.41667C19.5002 5.41667 17.3335 7.58333 17.3335 10.2917C17.3335 12.415 18.6985 14.2133 20.5835 14.885V28.4483C18.6985 29.12 17.3335 30.9183 17.3335 33.0417C17.3335 35.75 19.5002 37.9167 22.2085 37.9167C24.9168 37.9167 27.0835 35.75 27.0835 33.0417C27.0835 31.0267 25.8702 29.25 24.1152 28.5567C24.7218 27.0833 26.4985 24.9167 31.9585 24.9167ZM22.2085 31.4167C22.6395 31.4167 23.0528 31.5879 23.3575 31.8926C23.6623 32.1974 23.8335 32.6107 23.8335 33.0417C23.8335 33.4726 23.6623 33.886 23.3575 34.1907C23.0528 34.4955 22.6395 34.6667 22.2085 34.6667C21.7775 34.6667 21.3642 34.4955 21.0594 34.1907C20.7547 33.886 20.5835 33.4726 20.5835 33.0417C20.5835 32.6107 20.7547 32.1974 21.0594 31.8926C21.3642 31.5879 21.7775 31.4167 22.2085 31.4167ZM22.2085 8.66667C22.6395 8.66667 23.0528 8.83787 23.3575 9.14262C23.6623 9.44736 23.8335 9.86069 23.8335 10.2917C23.8335 10.7226 23.6623 11.136 23.3575 11.4407C23.0528 11.7455 22.6395 11.9167 22.2085 11.9167C21.7775 11.9167 21.3642 11.7455 21.0594 11.4407C20.7547 11.136 20.5835 10.7226 20.5835 10.2917C20.5835 9.86069 20.7547 9.44736 21.0594 9.14262C21.3642 8.83787 21.7775 8.66667 22.2085 8.66667ZM38.4585 11.9167C38.8895 11.9167 39.3028 12.0879 39.6075 12.3926C39.9123 12.6974 40.0835 13.1107 40.0835 13.5417C40.0835 13.9726 39.9123 14.386 39.6075 14.6907C39.3028 14.9955 38.8895 15.1667 38.4585 15.1667C38.0275 15.1667 37.6142 14.9955 37.3094 14.6907C37.0047 14.386 36.8335 13.9726 36.8335 13.5417C36.8335 13.1107 37.0047 12.6974 37.3094 12.3926C37.6142 12.0879 38.0275 11.9167 38.4585 11.9167ZM34.6668 47.6667V52H8.66683C7.51756 52 6.41536 51.5435 5.6027 50.7308C4.79004 49.9181 4.3335 48.8159 4.3335 47.6667V13H8.66683V47.6667H34.6668Z" fill="#fdcd13"/>
</g>
</svg>
