<svg width="73" height="73" viewBox="0 0 73 73" fill="none" xmlns="http://www.w3.org/2000/svg">
<rect x="0.287025" y="0.287025" width="72.4259" height="9.5675" rx="4.78375" stroke="#fdcd13" stroke-width="0.57405"/>
<rect x="17.2226" y="0.287025" width="37.3132" height="9.5675" stroke="#fdcd13" stroke-width="0.57405"/>
<rect x="46.4976" y="4.20996" width="8.32372" height="1.81782" fill="#fdcd13"/>
<circle cx="46.4981" cy="5.07087" r="1.43512" fill="#fdcd13"/>
<rect width="8.32372" height="1.81782" transform="matrix(-1 0 0 1 25.8335 4.20996)" fill="#fdcd13"/>
<circle cx="1.43512" cy="1.43512" r="1.43512" transform="matrix(-1 0 0 1 27.2681 3.63574)" fill="#fdcd13"/>
<rect x="72.713" y="0.287025" width="72.4259" height="9.5675" rx="4.78375" transform="rotate(90 72.713 0.287025)" stroke="#fdcd13" stroke-width="0.57405"/>
<rect x="72.713" y="17.2216" width="37.3132" height="9.5675" transform="rotate(90 72.713 17.2216)" stroke="#fdcd13" stroke-width="0.57405"/>
<rect x="68.7886" y="46.499" width="8.32372" height="1.81782" transform="rotate(90 68.7886 46.499)" fill="#fdcd13"/>
<circle cx="67.9282" cy="46.4986" r="1.43512" transform="rotate(90 67.9282 46.4986)" fill="#fdcd13"/>
<rect width="8.32372" height="1.81782" transform="matrix(0 -1 -1 0 68.7886 25.832)" fill="#fdcd13"/>
<circle cx="1.43512" cy="1.43512" r="1.43512" transform="matrix(0 -1 -1 0 69.3633 27.2676)" fill="#fdcd13"/>
<rect x="9.85458" y="0.287025" width="72.4259" height="9.5675" rx="4.78375" transform="rotate(90 9.85458 0.287025)" stroke="#fdcd13" stroke-width="0.57405"/>
<rect x="9.85409" y="17.2216" width="37.3132" height="9.5675" transform="rotate(90 9.85409 17.2216)" stroke="#fdcd13" stroke-width="0.57405"/>
<rect x="5.93115" y="46.499" width="8.32372" height="1.81782" transform="rotate(90 5.93115 46.499)" fill="#fdcd13"/>
<circle cx="5.06927" cy="46.4986" r="1.43512" transform="rotate(90 5.06927 46.4986)" fill="#fdcd13"/>
<rect width="8.32372" height="1.81782" transform="matrix(0 -1 -1 0 5.93115 25.832)" fill="#fdcd13"/>
<circle cx="1.43512" cy="1.43512" r="1.43512" transform="matrix(0 -1 -1 0 6.50439 27.2676)" fill="#fdcd13"/>
<rect x="0.287025" y="63.1454" width="72.4259" height="9.5675" rx="4.78375" stroke="#fdcd13" stroke-width="0.57405"/>
<rect x="17.2226" y="63.1454" width="37.3132" height="9.5675" stroke="#fdcd13" stroke-width="0.57405"/>
<rect x="46.4976" y="67.0684" width="8.32372" height="1.81782" fill="#fdcd13"/>
<circle cx="46.4981" cy="67.9293" r="1.43512" fill="#fdcd13"/>
<rect width="8.32372" height="1.81782" transform="matrix(-1 0 0 1 25.8335 67.0684)" fill="#fdcd13"/>
<circle cx="1.43512" cy="1.43512" r="1.43512" transform="matrix(-1 0 0 1 27.2681 66.4941)" fill="#fdcd13"/>
<path d="M27.4998 42.9123V31.755C28.3895 31.4405 29.1393 30.8216 29.6167 30.0077C30.0941 29.1938 30.2685 28.2373 30.1089 27.3073C29.9493 26.3774 29.4662 25.5337 28.7447 24.9255C28.0233 24.3173 27.1101 23.9838 26.1665 23.9838C25.2229 23.9838 24.3097 24.3173 23.5883 24.9255C22.8669 25.5337 22.3837 26.3774 22.2241 27.3073C22.0646 28.2373 22.2389 29.1938 22.7163 30.0077C23.1938 30.8216 23.9436 31.4405 24.8332 31.755V42.9123C23.9436 43.2269 23.1938 43.8458 22.7163 44.6596C22.2389 45.4735 22.0646 46.43 22.2241 47.36C22.3837 48.29 22.8669 49.1336 23.5883 49.7418C24.3097 50.35 25.2229 50.6836 26.1665 50.6836C27.1101 50.6836 28.0233 50.35 28.7447 49.7418C29.4662 49.1336 29.9493 48.29 30.1089 47.36C30.2685 46.43 30.0941 45.4735 29.6167 44.6596C29.1393 43.8458 28.3895 43.2269 27.4998 42.9123ZM46.1665 42.9123V29.3337C46.1665 28.6264 45.8856 27.9481 45.3855 27.448C44.8854 26.9479 44.2071 26.667 43.4998 26.667H36.6038L38.7185 24.5523L36.8332 22.667L33.3852 26.115L31.4998 28.0003L33.3852 29.8857L36.8332 33.3337L38.7185 31.4483L36.6038 29.3337H43.4998V42.9123C42.6102 43.2269 41.8604 43.8458 41.383 44.6596C40.9056 45.4735 40.7312 46.43 40.8908 47.36C41.0503 48.29 41.5335 49.1336 42.255 49.7418C42.9764 50.35 43.8896 50.6836 44.8332 50.6836C45.7768 50.6836 46.69 50.35 47.4114 49.7418C48.1328 49.1336 48.616 48.29 48.7756 47.36C48.9351 46.43 48.7608 45.4735 48.2834 44.6596C47.8059 43.8458 47.0561 43.2269 46.1665 42.9123Z" fill="#fdcd13"/>
</svg>
