<svg width="52" height="52" viewBox="0 0 52 52" fill="none" xmlns="http://www.w3.org/2000/svg">
<g id="eos-icons:pull-request">
<path id="Vector" d="M13.0002 37.2317V19.101C14.4458 18.5899 15.6642 17.5842 16.44 16.2616C17.2159 14.9391 17.4992 13.3848 17.2399 11.8736C16.9806 10.3623 16.1954 8.99142 15.0231 8.00311C13.8508 7.01481 12.3668 6.47275 10.8335 6.47275C9.30019 6.47275 7.81623 7.01481 6.64391 8.00311C5.4716 8.99142 4.68641 10.3623 4.42712 11.8736C4.16783 13.3848 4.45114 14.9391 5.22697 16.2616C6.00281 17.5842 7.22121 18.5899 8.66684 19.101V37.2317C7.22121 37.7428 6.00281 38.7485 5.22697 40.071C4.45114 41.3936 4.16783 42.9479 4.42712 44.4591C4.68641 45.9703 5.4716 47.3413 6.64391 48.3296C7.81623 49.3179 9.30019 49.8599 10.8335 49.8599C12.3668 49.8599 13.8508 49.3179 15.0231 48.3296C16.1954 47.3413 16.9806 45.9703 17.2399 44.4591C17.4992 42.9479 17.2159 41.3936 16.44 40.071C15.6642 38.7485 14.4458 37.7428 13.0002 37.2317ZM43.3335 37.2317V15.1663C43.3335 14.0171 42.877 12.9149 42.0643 12.1022C41.2516 11.2896 40.1494 10.833 39.0002 10.833H27.7942L31.2305 7.39667L28.1668 4.33301L22.5638 9.93601L19.5002 12.9997L22.5638 16.0633L28.1668 21.6663L31.2305 18.6027L27.7942 15.1663H39.0002V37.2317C37.5545 37.7428 36.3361 38.7485 35.5603 40.071C34.7845 41.3936 34.5012 42.9479 34.7605 44.4591C35.0197 45.9703 35.8049 47.3413 36.9772 48.3296C38.1496 49.3179 39.6335 49.8599 41.1668 49.8599C42.7002 49.8599 44.1841 49.3179 45.3564 48.3296C46.5288 47.3413 47.3139 45.9703 47.5732 44.4591C47.8325 42.9479 47.5492 41.3936 46.7734 40.071C45.9975 38.7485 44.7791 37.7428 43.3335 37.2317Z" fill="#fdcd13"/>
</g>
</svg>
