<svg width="52" height="52" viewBox="0 0 52 52" fill="none" xmlns="http://www.w3.org/2000/svg">
<g id="mdi:github">
<path id="Vector" d="M26.0002 4.33301C23.1549 4.33301 20.3374 4.89343 17.7087 5.98228C15.08 7.07114 12.6915 8.66709 10.6795 10.679C6.61623 14.7423 4.3335 20.2533 4.3335 25.9997C4.3335 35.5763 10.5518 43.7013 19.1535 46.583C20.2368 46.7563 20.5835 46.0847 20.5835 45.4997V41.838C14.5818 43.138 13.3035 38.9347 13.3035 38.9347C12.3068 36.4213 10.8985 35.7497 10.8985 35.7497C8.92683 34.4063 11.0502 34.4497 11.0502 34.4497C13.2168 34.6013 14.3652 36.6813 14.3652 36.6813C16.2502 39.9747 19.4352 38.9997 20.6702 38.4797C20.8652 37.0713 21.4285 36.118 22.0352 35.5763C17.2252 35.0347 12.1768 33.1713 12.1768 24.9163C12.1768 22.5113 13.0002 20.583 14.4085 19.0447C14.1918 18.503 13.4335 16.2497 14.6252 13.3247C14.6252 13.3247 16.4452 12.7397 20.5835 15.5347C22.2952 15.058 24.1585 14.8197 26.0002 14.8197C27.8418 14.8197 29.7052 15.058 31.4168 15.5347C35.5552 12.7397 37.3752 13.3247 37.3752 13.3247C38.5668 16.2497 37.8085 18.503 37.5918 19.0447C39.0002 20.583 39.8235 22.5113 39.8235 24.9163C39.8235 33.193 34.7535 35.013 29.9218 35.5547C30.7018 36.2263 31.4168 37.548 31.4168 39.563V45.4997C31.4168 46.0847 31.7635 46.778 32.8685 46.583C41.4702 43.6797 47.6668 35.5763 47.6668 25.9997C47.6668 23.1544 47.1064 20.3369 46.0176 17.7082C44.9287 15.0795 43.3327 12.691 41.3208 10.679C39.3089 8.66709 36.9204 7.07114 34.2916 5.98228C31.6629 4.89343 28.8455 4.33301 26.0002 4.33301Z" fill="#fdcd13"/>
</g>
</svg>
