<svg width="32" height="32" viewBox="0 0 32 32" fill="currentColor" xmlns="http://www.w3.org/2000/svg">
<g id="ri:instagram-fill">
<path id="Vector" d="M17.3708 2.66766C18.3438 2.66392 19.3167 2.6737 20.2895 2.69699L20.5481 2.70632C20.8468 2.71699 21.1415 2.73032 21.4975 2.74632C22.9161 2.81299 23.8841 3.03699 24.7335 3.36632C25.6135 3.70499 26.3548 4.16366 27.0961 4.90499C27.774 5.57113 28.2986 6.37692 28.6335 7.26632C28.9628 8.11566 29.1868 9.08499 29.2535 10.5037C29.2695 10.8583 29.2828 11.1543 29.2935 11.453L29.3015 11.7117C29.3251 12.6839 29.3354 13.6565 29.3321 14.629L29.3335 15.6237V17.3703C29.3367 18.3433 29.3265 19.3163 29.3028 20.289L29.2948 20.5477C29.2841 20.8463 29.2708 21.141 29.2548 21.497C29.1881 22.9157 28.9615 23.8837 28.6335 24.733C28.2997 25.6233 27.7749 26.4298 27.0961 27.0957C26.4294 27.7734 25.6232 28.298 24.7335 28.633C23.8841 28.9623 22.9161 29.1863 21.4975 29.253C21.1415 29.269 20.8468 29.2823 20.5481 29.293L20.2895 29.301C19.3168 29.3247 18.3438 29.3349 17.3708 29.3317L16.3761 29.333H14.6308C13.6578 29.3363 12.6848 29.3261 11.7121 29.3023L11.4535 29.2943C11.1369 29.2828 10.8205 29.2695 10.5041 29.2543C9.08545 29.1877 8.11745 28.961 7.26678 28.633C6.37703 28.2988 5.5711 27.7741 4.90545 27.0957C4.22685 26.4294 3.70175 25.6231 3.36679 24.733C3.03745 23.8837 2.81345 22.9157 2.74678 21.497C2.73194 21.1806 2.7186 20.8642 2.70678 20.5477L2.70012 20.289C2.67554 19.3163 2.66442 18.3433 2.66678 17.3703V14.629C2.66306 13.6565 2.67284 12.6839 2.69612 11.7117L2.70545 11.453C2.71612 11.1543 2.72945 10.8583 2.74545 10.5037C2.81212 9.08366 3.03612 8.11699 3.36545 7.26632C3.70062 6.37648 4.22674 5.57092 4.90679 4.90632C5.57198 4.22733 6.3774 3.70175 7.26678 3.36632C8.11745 3.03699 9.08412 2.81299 10.5041 2.74632L11.4535 2.70632L11.7121 2.69966C12.6844 2.67509 13.6569 2.66397 14.6295 2.66632L17.3708 2.66766ZM16.0001 9.33432C15.1168 9.32183 14.2398 9.48502 13.4201 9.81441C12.6004 10.1438 11.8543 10.6328 11.2252 11.2531C10.5962 11.8733 10.0967 12.6124 9.7557 13.4273C9.41475 14.2423 9.23917 15.1169 9.23917 16.0003C9.23917 16.8837 9.41475 17.7583 9.7557 18.5733C10.0967 19.3883 10.5962 20.1273 11.2252 20.7476C11.8543 21.3678 12.6004 21.8568 13.4201 22.1862C14.2398 22.5156 15.1168 22.6788 16.0001 22.6663C17.7682 22.6663 19.4639 21.9639 20.7142 20.7137C21.9644 19.4635 22.6668 17.7678 22.6668 15.9997C22.6668 14.2315 21.9644 12.5359 20.7142 11.2856C19.4639 10.0354 17.7682 9.33432 16.0001 9.33432ZM16.0001 12.001C16.5315 11.9912 17.0594 12.0874 17.5532 12.2839C18.0469 12.4805 18.4966 12.7734 18.8758 13.1457C19.2551 13.518 19.5564 13.9621 19.762 14.4521C19.9677 14.9421 20.0737 15.4682 20.0738 15.9996C20.0739 16.5311 19.9681 17.0572 19.7626 17.5473C19.557 18.0374 19.2559 18.4816 18.8768 18.854C18.4976 19.2264 18.0481 19.5195 17.5544 19.7162C17.0607 19.9129 16.5328 20.0093 16.0015 19.9997C14.9406 19.9997 13.9232 19.5782 13.173 18.8281C12.4229 18.0779 12.0015 17.0605 12.0015 15.9997C12.0015 14.9388 12.4229 13.9214 13.173 13.1712C13.9232 12.4211 14.9406 11.9997 16.0015 11.9997L16.0001 12.001ZM23.0001 7.33432C22.57 7.35154 22.1632 7.53452 21.8649 7.84495C21.5667 8.15538 21.4001 8.56917 21.4001 8.99966C21.4001 9.43014 21.5667 9.84393 21.8649 10.1544C22.1632 10.4648 22.57 10.6478 23.0001 10.665C23.4421 10.665 23.8661 10.4894 24.1786 10.1768C24.4912 9.86427 24.6668 9.44035 24.6668 8.99832C24.6668 8.55629 24.4912 8.13237 24.1786 7.81981C23.8661 7.50725 23.4421 7.33166 23.0001 7.33166V7.33432Z" fill="currentColor"/>
</g>
</svg>
