<svg xmlns="http://www.w3.org/2000/svg" width="24" height="24" viewBox="0 0 24 24">
    <path fill="#9ee83f" d="M10.586 13.414l-1.414 1.414a4.001 4.001 0 0 1-5.657-5.657l1.414-1.414a2 2 0 0 1 2.828 
    0l1.414 1.414a2 2 0 0 1 0 2.828zM15.414 10.586l1.414-1.414a4.001 4.001 0 0 1 5.657 
    5.657l-1.414 1.414a2 2 0 0 1-2.828 
    0l-1.414-1.414a2 2 0 0 1 
    0-2.828zM12 
    6a6 
    6 
    0 
    0 
    1-6 
    6h-.5a3.5 
    3.5 
    0 
    0 
    0-.5 .036V12a6 
    6 
    0 
    0 
    1 .5-12h6z"/>
</svg>