<svg width="278" height="66" viewBox="0 0 278 66" fill="none" xmlns="http://www.w3.org/2000/svg">
<path d="M13.7757 49.0627C16.1614 51.9014 19.1393 54.1836 22.5005 55.7494C25.8617 57.3152 29.5249 58.1265 33.2329 58.1265C36.9409 58.1265 40.604 57.3152 43.9652 55.7494C47.3265 54.1836 50.3044 51.9014 52.6901 49.0627L58.6904 54.0833C55.5734 57.8043 51.6786 60.7968 47.2802 62.85C42.8819 64.9032 38.0869 65.9673 33.2329 65.9673C28.3789 65.9673 23.5839 64.9032 19.1855 62.85C14.7871 60.7968 10.8923 57.8043 7.77537 54.0833L13.7757 49.0627ZM28.8167 7.71646C25.1645 8.36238 21.698 9.7999 18.6605 11.9281C15.623 14.0563 13.0882 16.8236 11.234 20.0357C9.37978 23.2477 8.25115 26.8268 7.92732 30.5215C7.6035 34.2161 8.09233 37.9369 9.3595 41.4226L2.0102 44.0876C0.347282 39.528 -0.296041 34.6594 0.125515 29.8245C0.547071 24.9895 2.02326 20.3057 4.45017 16.1027C6.87708 11.8998 10.1957 8.27986 14.1725 5.49777C18.1492 2.71569 22.6875 0.839063 27.4677 0L28.8167 7.71646ZM57.1062 41.4226C58.3783 37.9371 58.8709 34.2152 58.5492 30.5189C58.2276 26.8225 57.0996 23.2416 55.2447 20.0282C53.3897 16.8148 50.8529 14.0472 47.8129 11.92C44.7729 9.79291 41.3035 8.35804 37.6491 7.71646L38.998 0C43.775 0.845406 48.309 2.72591 52.2821 5.50955C56.2551 8.29319 59.5709 11.9125 61.9967 16.1136C64.4225 20.3147 65.8997 24.9957 66.3244 29.8283C66.7492 34.6608 66.1113 39.5277 64.4556 44.0876L57.1062 41.4226Z" fill="#00CD55"/>
<path d="M35.1901 24.0979V30.9398L39.7465 28.3099C39.8101 27.5898 40.1014 26.9086 40.5783 26.3653C41.0552 25.8219 41.6928 25.4446 42.3986 25.2882C43.1044 25.1317 43.8417 25.2042 44.5035 25.4952C45.1653 25.7861 45.7172 26.2803 46.0791 26.9061C46.4411 27.532 46.5942 28.2568 46.5162 28.9755C46.4383 29.6943 46.1334 30.3695 45.6458 30.9032C45.1581 31.4369 44.5131 31.8014 43.8044 31.9437C43.0956 32.086 42.3599 31.9988 41.704 31.6947L35.1901 35.455V46.0963C35.1901 46.3537 35.1394 46.6085 35.0409 46.8462C34.9424 47.0839 34.7981 47.3 34.6161 47.4819C34.4342 47.6639 34.2182 47.8082 33.9804 47.9067C33.7427 48.0052 33.4879 48.0559 33.2305 48.0559C32.9732 48.0559 32.7184 48.0052 32.4807 47.9067C32.2429 47.8082 32.0269 47.6639 31.8449 47.4819C31.663 47.3 31.5186 47.0839 31.4202 46.8462C31.3217 46.6085 31.271 46.3537 31.271 46.0963V35.4509L24.7591 31.6906C24.1029 31.9952 23.3666 32.0828 22.6573 31.9406C21.9479 31.7983 21.3023 31.4338 20.8142 30.8997C20.326 30.3657 20.0208 29.69 19.9427 28.9707C19.8647 28.2515 20.0178 27.526 20.38 26.8997C20.7422 26.2734 21.2946 25.7788 21.957 25.4877C22.6193 25.1967 23.3572 25.1242 24.0635 25.2809C24.7698 25.4377 25.4078 25.8154 25.8849 26.3593C26.362 26.9032 26.6533 27.585 26.7166 28.3058L31.271 30.9398V24.0979C30.6792 23.6816 30.2354 23.0875 30.004 22.4019C29.7725 21.7164 29.7655 20.9749 29.9838 20.285C30.2022 19.5952 30.6346 18.9928 31.2184 18.5652C31.8022 18.1377 32.507 17.9072 33.2305 17.9072C33.9541 17.9072 34.6589 18.1377 35.2427 18.5652C35.8265 18.9928 36.2589 19.5952 36.4772 20.285C36.6956 20.9749 36.6886 21.7164 36.4571 22.4019C36.2257 23.0875 35.7819 23.6816 35.1901 24.0979Z" fill="white"/>
<path d="M151.781 23.8336C152.467 23.8606 153.138 23.6195 153.65 23.1612C154.116 22.6944 154.378 22.0616 154.378 21.4018C154.378 20.7419 154.116 20.1091 153.65 19.6423C153.137 19.1863 152.467 18.9474 151.781 18.976C151.091 18.9501 150.418 19.1909 149.902 19.6485C149.669 19.8787 149.484 20.1527 149.358 20.4547C149.232 20.7567 149.167 21.0807 149.167 21.4079C149.167 21.7352 149.232 22.0592 149.358 22.3612C149.484 22.6632 149.669 22.9372 149.902 23.1674C150.418 23.625 151.091 23.8658 151.781 23.8398V23.8336ZM157.214 16.7669V25.0176C157.214 26.8341 156.742 28.1845 155.797 29.0687C154.852 29.9529 153.471 30.395 151.653 30.395C150.73 30.3988 149.811 30.2795 148.92 30.0402C148.147 29.8479 147.42 29.5029 146.783 29.0254L147.926 26.9627C148.396 27.3372 148.934 27.6173 149.51 27.7878C150.128 27.9869 150.774 28.0891 151.424 28.091C152.421 28.091 153.155 27.8669 153.625 27.4186C154.095 26.9703 154.332 26.2923 154.334 25.3848V24.9578C153.586 25.7829 152.543 26.1954 151.203 26.1954C150.335 26.2057 149.477 26.0001 148.707 25.5972C147.966 25.211 147.345 24.6279 146.913 23.912C146.478 23.1492 146.249 22.2862 146.249 21.4079C146.249 20.5297 146.478 19.6667 146.913 18.9039C147.344 18.1875 147.965 17.6043 148.707 17.2187C149.477 16.8151 150.334 16.6089 151.203 16.6184C152.642 16.6184 153.735 17.0915 154.483 18.0375V16.7607L157.214 16.7669ZM140.166 24.4648C140.504 24.476 140.84 24.4152 141.153 24.2865C141.465 24.1577 141.747 23.964 141.979 23.7181C142.451 23.2217 142.687 22.5562 142.689 21.7215C142.69 20.8868 142.453 20.2205 141.979 19.7227C141.747 19.4773 141.465 19.2838 141.152 19.1551C140.84 19.0264 140.504 18.9654 140.166 18.976C139.827 18.9658 139.489 19.0269 139.175 19.1556C138.861 19.2842 138.577 19.4774 138.342 19.7227C137.864 20.2192 137.624 20.8854 137.623 21.7215C137.621 22.5575 137.861 23.2231 138.342 23.7181C138.577 23.9627 138.861 24.1551 139.175 24.2827C139.489 24.4103 139.827 24.4702 140.166 24.4586V24.4648ZM140.166 26.8225C139.19 26.8381 138.225 26.6136 137.357 26.1686C136.553 25.757 135.88 25.129 135.413 24.3555C134.955 23.5532 134.714 22.6453 134.714 21.7215C134.714 20.7976 134.955 19.8897 135.413 19.0874C135.88 18.3138 136.553 17.6853 137.357 17.2723C138.225 16.8273 139.19 16.6028 140.166 16.6184C141.139 16.602 142.1 16.8266 142.965 17.2723C143.764 17.6874 144.433 18.3156 144.898 19.0874C145.357 19.8892 145.599 20.7973 145.599 21.7215C145.599 22.6456 145.357 23.5537 144.898 24.3555C144.434 25.1272 143.765 25.7549 142.965 26.1686C142.099 26.6114 141.138 26.8332 140.166 26.8142V26.8225ZM130.944 18.0685C131.296 17.5829 131.778 17.2062 132.334 16.9814C132.975 16.7248 133.661 16.5993 134.351 16.6122V19.2648C134.031 19.2401 133.817 19.2277 133.706 19.2277C132.881 19.2277 132.236 19.458 131.773 19.9187C131.309 20.3794 131.076 21.0704 131.072 21.9917V26.6698H128.2V16.769H130.944V18.0685ZM123.268 16.9814H125.818V19.1823H123.343V26.6698H120.469V19.1823H118.941V16.9814H120.469V16.54C120.469 15.4097 120.804 14.5159 121.474 13.8586C122.144 13.2013 123.086 12.8699 124.3 12.8644C124.712 12.8619 125.124 12.9083 125.525 13.0026C125.868 13.077 126.196 13.211 126.492 13.3986L125.737 15.4695C125.397 15.2332 124.991 15.1105 124.576 15.1189C123.706 15.1189 123.27 15.6001 123.268 16.5627V16.9814ZM113.293 24.4586C113.631 24.4698 113.968 24.409 114.28 24.2803C114.593 24.1516 114.874 23.9578 115.106 23.7119C115.578 23.2155 115.815 22.55 115.816 21.7153C115.817 20.8806 115.581 20.2143 115.106 19.7165C114.624 19.238 113.972 18.9695 113.292 18.9695C112.613 18.9695 111.961 19.238 111.478 19.7165C111.007 20.213 110.77 20.8792 110.769 21.7153C110.767 22.5513 111.004 23.2169 111.478 23.7119C111.711 23.958 111.993 24.1518 112.305 24.2805C112.618 24.4093 112.955 24.47 113.293 24.4586ZM113.79 16.6205C114.669 16.6103 115.535 16.8292 116.303 17.2558C117.052 17.6729 117.668 18.2927 118.081 19.0441C118.525 19.867 118.747 20.791 118.726 21.7256C118.747 22.6602 118.525 23.5842 118.081 24.4071C117.669 25.1584 117.052 25.7778 116.303 26.1933C115.533 26.6149 114.668 26.8288 113.79 26.8142C112.525 26.8142 111.53 26.4154 110.806 25.6179V30.2403H107.932V16.7607H110.678V17.9014C111.389 17.0433 112.426 16.6136 113.79 16.6122V16.6205ZM100.86 24.8815C101.318 24.8901 101.771 24.7724 102.167 24.5411C102.549 24.3146 102.836 23.9589 102.978 23.5387V22.5259H101.008C99.8282 22.5259 99.239 22.9123 99.2404 23.6851C99.2345 23.8552 99.2708 24.024 99.346 24.1766C99.4213 24.3292 99.5331 24.4608 99.6715 24.5597C100.022 24.7922 100.439 24.9051 100.86 24.8815ZM101.08 16.6122C102.615 16.6122 103.794 16.978 104.618 17.7096C105.441 18.4411 105.854 19.5412 105.855 21.0098V26.6698H103.174V25.4322C102.633 26.3535 101.627 26.8142 100.154 26.8142C99.4737 26.8311 98.7978 26.6988 98.174 26.4264C97.6538 26.2018 97.2096 25.8314 96.8951 25.36C96.5984 24.8992 96.4441 24.3611 96.4516 23.813C96.4338 23.3941 96.5184 22.9771 96.6981 22.5983C96.8779 22.2195 97.1473 21.8902 97.483 21.639C98.1705 21.1109 99.2418 20.8469 100.697 20.8469H102.984C103.001 20.579 102.958 20.3108 102.859 20.0613C102.761 19.8117 102.608 19.587 102.413 19.403C102.033 19.0647 101.462 18.8977 100.701 18.8977C100.172 18.8977 99.6463 18.9813 99.1434 19.1452C98.6742 19.2899 98.2348 19.5176 97.846 19.8176L96.8147 17.8106C97.4062 17.4053 98.0637 17.1059 98.7577 16.9258C99.5162 16.7165 100.3 16.6111 101.086 16.6122H101.08ZM90.835 18.7863C90.2397 18.7672 89.6575 18.9635 89.1952 19.3391C88.7451 19.7229 88.4558 20.2618 88.3845 20.849H93.2648C93.1908 20.265 92.9018 19.7296 92.4542 19.3473C92.0008 18.9694 91.425 18.7699 90.835 18.7863ZM95.9731 21.7524C95.9731 21.7882 95.9545 22.046 95.9174 22.5259H88.4217C88.5421 23.1156 88.8848 23.6363 89.3787 23.9801C89.9332 24.3517 90.5908 24.5386 91.2578 24.5143C91.7254 24.5231 92.1906 24.4447 92.6295 24.2833C93.0462 24.1194 93.4252 23.8723 93.7434 23.5572L95.2739 25.2074C94.3388 26.2758 92.9754 26.8101 91.1836 26.8101C90.1577 26.8302 89.1417 26.6061 88.2195 26.1562C87.3965 25.7543 86.7058 25.1252 86.229 24.3431C85.7568 23.5467 85.5147 22.6349 85.5298 21.7091C85.5163 20.7899 85.753 19.8844 86.2146 19.0895C86.6668 18.3183 87.3236 17.6872 88.1123 17.2661C88.9358 16.8411 89.8483 16.617 90.775 16.6124C91.7018 16.6077 92.6165 16.8225 93.4443 17.2393C94.2232 17.6468 94.8679 18.2707 95.3007 19.0359C95.7613 19.8659 95.9933 20.8033 95.9731 21.7524ZM75.9404 13.7761H78.9231V24.2379H85.3895V26.6698H75.9425L75.9404 13.7761Z" fill="white"/>
<path d="M269.543 40.8757C268.564 40.8445 267.607 41.1674 266.847 41.7853C266.109 42.4144 265.633 43.2977 265.515 44.2605H273.541C273.418 43.2991 272.943 42.4172 272.208 41.7853C271.462 41.1629 270.514 40.8343 269.543 40.8612V40.8757ZM278 45.7374C278 45.7979 277.97 46.2221 277.909 47.0101H265.585C265.781 47.9801 266.345 48.8367 267.159 49.4007C267.984 49.9865 269.015 50.2794 270.253 50.2794C271.016 50.2961 271.776 50.173 272.495 49.9164C273.18 49.6445 273.804 49.2376 274.329 48.72L276.841 51.4448C275.306 53.2008 273.065 54.0788 270.119 54.0788C268.431 54.1132 266.759 53.7448 265.242 53.0042C263.89 52.3433 262.755 51.3081 261.973 50.0216C261.195 48.7123 260.797 47.2126 260.822 45.6899C260.8 44.1751 261.193 42.6831 261.957 41.3748C262.701 40.1067 263.781 39.0688 265.077 38.3757C266.432 37.6773 267.932 37.3092 269.455 37.3013C270.979 37.2934 272.483 37.646 273.844 38.3303C275.12 39.0024 276.177 40.0278 276.886 41.2841C277.644 42.6489 278.026 44.1909 277.992 45.7518L278 45.7374ZM252.231 54.0644C250.607 54.0912 249.001 53.7224 247.551 52.9897C246.215 52.3167 245.093 51.2837 244.313 50.0071C243.714 49.042 243.322 47.9633 243.161 46.839C243.001 45.7148 243.075 44.5694 243.379 43.4753C243.683 42.3811 244.211 41.3619 244.929 40.4821C245.647 39.6022 246.54 38.8808 247.551 38.3633C249.001 37.6317 250.607 37.2629 252.231 37.2887C253.947 37.2887 255.446 37.6469 256.728 38.3633C257.978 39.0543 258.962 40.1443 259.521 41.4594L255.855 43.4293C255.007 41.9345 253.786 41.1871 252.192 41.1871C251.626 41.1699 251.063 41.2684 250.537 41.4767C250.011 41.6849 249.533 41.9984 249.133 42.3979C248.327 43.2065 247.924 44.3066 247.922 45.6982C247.921 47.0898 248.324 48.1899 249.133 48.9985C249.533 49.398 250.011 49.7115 250.537 49.9198C251.063 50.128 251.626 50.2265 252.192 50.2093C253.806 50.2093 255.027 49.4626 255.855 47.9692L259.521 49.9679C258.939 51.2538 257.956 52.3163 256.719 52.9959C255.437 53.7179 253.938 54.0788 252.223 54.0788L252.231 54.0644ZM236.091 39.6814C236.669 38.8825 237.461 38.2633 238.376 37.8951C239.43 37.473 240.558 37.2668 241.693 37.2887V41.6657C241.167 41.6265 240.814 41.6059 240.633 41.6059C239.28 41.6059 238.219 41.984 237.452 42.7403C236.685 43.4966 236.302 44.6325 236.303 46.1479V53.8354H231.578V37.5403H236.091V39.6814ZM227.18 37.5403V53.8354H222.698V51.8965C222.081 52.5972 221.314 53.1511 220.456 53.5178C219.566 53.8956 218.607 54.0859 217.64 54.0768C215.5 54.0768 213.805 53.458 212.554 52.2204C211.302 50.9828 210.677 49.1552 210.677 46.7378V37.5403H215.4V46.0489C215.4 48.6726 216.5 49.9844 218.7 49.9844C219.831 49.9844 220.739 49.6159 221.425 48.8788C222.111 48.1418 222.455 47.0472 222.456 45.5951V37.5403H227.18ZM198.684 50.2031C199.24 50.2209 199.793 50.1209 200.307 49.9098C200.821 49.6986 201.284 49.381 201.667 48.9778C202.444 48.1528 202.832 47.0575 202.832 45.692C202.832 44.3265 202.444 43.2312 201.667 42.4062C201.286 42.0005 200.823 41.6804 200.308 41.467C199.794 41.2537 199.241 41.1519 198.684 41.1686C198.126 41.1528 197.57 41.2548 197.054 41.468C196.537 41.6813 196.072 42.0009 195.687 42.4062C194.899 43.223 194.505 44.3183 194.505 45.692C194.505 47.0658 194.899 48.161 195.687 48.9778C196.073 49.3806 196.539 49.6979 197.055 49.9089C197.572 50.12 198.127 50.2202 198.684 50.2031ZM198.684 54.0788C197.08 54.1077 195.494 53.7407 194.066 53.0104C192.744 52.3325 191.638 51.2996 190.871 50.0278C190.116 48.7088 189.719 47.2157 189.719 45.6961C189.719 44.1766 190.116 42.6835 190.871 41.3645C191.639 40.0936 192.745 39.061 194.066 38.3819C195.494 37.6504 197.08 37.2813 198.684 37.3072C200.283 37.2798 201.864 37.649 203.286 38.3819C204.601 39.0629 205.702 40.0936 206.469 41.3604C207.223 42.6793 207.62 44.1725 207.62 45.692C207.62 47.2115 207.223 48.7047 206.469 50.0236C205.705 51.2948 204.603 52.3288 203.286 53.0104C201.864 53.742 200.283 54.1091 198.684 54.0788ZM178.909 54.2005C177.265 54.2048 175.629 53.9757 174.05 53.5199C172.486 53.0633 171.229 52.4727 170.279 51.748L171.946 48.06C172.933 48.7654 174.027 49.3072 175.186 49.6647C176.398 50.062 177.665 50.266 178.94 50.2691C180.333 50.2691 181.365 50.0628 182.034 49.6503C182.704 49.2377 183.037 48.6877 183.033 48.0001C183.036 47.7596 182.985 47.5214 182.883 47.3037C182.781 47.086 182.63 46.8945 182.443 46.744C181.994 46.3822 181.48 46.1099 180.929 45.9416C180.311 45.7395 179.479 45.5174 178.431 45.2754C177.086 44.9712 175.761 44.5869 174.462 44.1244C173.437 43.7412 172.526 43.103 171.816 42.27C171.079 41.4216 170.71 40.2906 170.71 38.8769C170.698 37.6865 171.046 36.5202 171.709 35.5313C172.374 34.533 173.379 33.7409 174.722 33.1551C176.066 32.5693 177.706 32.2764 179.644 32.2764C180.981 32.2741 182.313 32.4369 183.61 32.7611C184.806 33.0456 185.95 33.5153 187.001 34.1534L185.487 37.8786C183.529 36.7689 181.571 36.214 179.613 36.214C178.238 36.214 177.223 36.4361 176.57 36.8803C176.268 37.0622 176.018 37.3198 175.846 37.6276C175.673 37.9354 175.584 38.2828 175.586 38.6356C175.586 39.3617 175.965 39.9014 176.721 40.2548C177.477 40.6082 178.633 40.9568 180.188 41.3006C181.532 41.6047 182.857 41.989 184.155 42.4516C185.175 42.8281 186.086 43.4526 186.805 44.2688C187.542 45.0938 187.911 46.2139 187.911 47.6289C187.918 48.8135 187.561 49.9718 186.89 50.9477C186.213 51.946 185.198 52.7381 183.845 53.3239C182.492 53.9097 180.847 54.2019 178.909 54.2005ZM152.014 37.3031C154.034 37.3031 155.664 37.9089 156.905 39.1203C158.145 40.3318 158.764 42.1284 158.761 44.5101V53.8354H154.038V45.2341C154.038 43.9429 153.754 42.9803 153.188 42.3464C152.621 41.7124 151.804 41.3948 150.735 41.3934C149.546 41.3934 148.597 41.7619 147.889 42.499C147.181 43.2361 146.831 44.3334 146.841 45.791V53.8354H142.113V37.5403H146.631V39.4462C147.277 38.7467 148.074 38.2036 148.961 37.858C149.934 37.4787 150.97 37.2904 152.014 37.3031ZM130.521 40.8757C129.542 40.8443 128.585 41.1673 127.825 41.7853C127.086 42.4139 126.61 43.2975 126.493 44.2605H134.516C134.395 43.2986 133.92 42.4162 133.184 41.7853C132.437 41.1684 131.49 40.845 130.521 40.8757ZM138.978 45.7518C138.978 45.8116 138.949 46.2366 138.887 47.0245H126.552C126.749 47.9951 127.314 48.8519 128.128 49.4151C128.953 50.0009 129.985 50.2938 131.222 50.2938C131.989 50.3067 132.752 50.1787 133.473 49.9164C134.157 49.6444 134.78 49.2376 135.304 48.72L137.819 51.4448C136.284 53.2008 134.043 54.0788 131.095 54.0788C129.411 54.1132 127.744 53.747 126.231 53.0104C124.877 52.3495 123.742 51.3144 122.959 50.0278C122.182 48.7185 121.783 47.2188 121.808 45.6961C121.782 44.1811 122.17 42.6876 122.93 41.3769C123.673 40.1084 124.753 39.0703 126.049 38.3778C127.414 37.6512 128.94 37.2815 130.486 37.3031C131.993 37.2819 133.482 37.6363 134.818 38.3345C136.095 39.0064 137.152 40.0318 137.862 41.2882C138.62 42.6519 139.001 44.1923 138.968 45.7518H138.978ZM110.928 50.2031C111.483 50.2209 112.036 50.1209 112.55 49.9098C113.064 49.6986 113.528 49.381 113.91 48.9778C114.687 48.1528 115.076 47.0575 115.076 45.692C115.076 44.3265 114.687 43.2312 113.91 42.4062C113.117 41.6202 112.045 41.1792 110.928 41.1792C109.811 41.1792 108.739 41.6202 107.945 42.4062C107.168 43.223 106.78 44.3183 106.78 45.692C106.78 47.0658 107.168 48.161 107.945 48.9778C108.328 49.381 108.791 49.6986 109.305 49.9098C109.819 50.1209 110.372 50.2209 110.928 50.2031ZM111.753 37.3031C113.195 37.2871 114.617 37.6475 115.878 38.3489C117.111 39.0326 118.126 40.0508 118.805 41.2861C119.501 42.6505 119.864 44.1604 119.864 45.692C119.864 47.2237 119.501 48.7335 118.805 50.0979C118.126 51.3318 117.113 52.3496 115.882 53.0351C114.621 53.7349 113.199 54.0946 111.757 54.0788C109.678 54.0788 108.043 53.4229 106.852 52.111V59.712H102.128V37.5403H106.635V39.4174C107.801 38.0092 109.505 37.3045 111.745 37.3031H111.753ZM87.1658 50.0216C88.3489 50.0363 89.515 49.7389 90.5465 49.1594C91.547 48.5927 92.3698 47.7584 92.9227 46.7502C93.4904 45.6667 93.787 44.4617 93.787 43.2385C93.787 42.0152 93.4904 40.8102 92.9227 39.7268C92.3698 38.7185 91.547 37.8843 90.5465 37.3176C89.5054 36.7518 88.3393 36.4554 87.1544 36.4554C85.9695 36.4554 84.8034 36.7518 83.7624 37.3176C82.7626 37.8846 81.9405 38.7188 81.3882 39.7268C80.8218 40.8107 80.526 42.0155 80.526 43.2385C80.526 44.4614 80.8218 45.6663 81.3882 46.7502C81.9411 47.7584 82.7639 48.5927 83.7644 49.1594C84.7996 49.7409 85.9702 50.0384 87.1575 50.0216H87.1658ZM87.1658 54.2005C85.0943 54.2317 83.0482 53.7423 81.215 52.7773C79.4986 51.8767 78.0634 50.5207 77.0669 48.8582C76.0844 47.149 75.5674 45.212 75.5674 43.2405C75.5674 41.2691 76.0844 39.3321 77.0669 37.6228C78.0634 35.9603 79.4986 34.6044 81.215 33.7038C83.0562 32.7682 85.0923 32.2806 87.1575 32.2806C89.2228 32.2806 91.2589 32.7682 93.1001 33.7038C94.8284 34.6263 96.2736 36.001 97.2813 37.6811C98.289 39.3612 98.8213 41.2835 98.8213 43.2426C98.8213 45.2017 98.289 47.124 97.2813 48.8041C96.2736 50.4842 94.8284 51.8589 93.1001 52.7814C91.2704 53.7474 89.2263 54.2355 87.1575 54.2005H87.1658Z" fill="white"/>
</svg>
