<svg width="32" height="32" viewBox="0 0 32 32" fill="none" xmlns="http://www.w3.org/2000/svg">
<g id="entypo-social:twitter-with-circle" clip-path="url(#clip0_1647_4547)">
<path id="Vector" d="M16.0001 0.640625C7.51694 0.640625 0.640137 7.51743 0.640137 16.0006C0.640137 24.4838 7.51694 31.3606 16.0001 31.3606C24.4833 31.3606 31.3601 24.4838 31.3601 16.0006C31.3601 7.51743 24.4833 0.640625 16.0001 0.640625ZM22.2481 13.223C22.2545 13.3542 22.2561 13.4854 22.2561 13.6134C22.2561 17.6134 19.2145 22.223 13.6497 22.223C12.0054 22.2258 10.3953 21.7535 9.01294 20.863C9.24814 20.8918 9.48974 20.903 9.73454 20.903C11.1521 20.903 12.4561 20.4214 13.4913 19.6086C12.8605 19.5962 12.2492 19.3873 11.7427 19.0111C11.2362 18.6348 10.8597 18.1098 10.6657 17.5094C11.1188 17.5956 11.5855 17.5775 12.0305 17.4566C11.3458 17.3182 10.7301 16.9471 10.2877 16.4065C9.84529 15.8658 9.60351 15.1888 9.60334 14.4902V14.4534C10.0113 14.679 10.4785 14.8166 10.9745 14.8326C10.3326 14.4053 9.87819 13.7489 9.70421 12.9976C9.53022 12.2464 9.64982 11.457 10.0385 10.791C10.7985 11.7254 11.7462 12.4898 12.8202 13.0347C13.8943 13.5796 15.0709 13.8929 16.2737 13.9542C16.1208 13.3051 16.1866 12.6237 16.461 12.0158C16.7353 11.408 17.2027 10.9078 17.7907 10.593C18.3786 10.2783 19.054 10.1666 19.712 10.2753C20.3699 10.384 20.9735 10.7071 21.4289 11.1942C22.106 11.0603 22.7553 10.8119 23.3489 10.4598C23.1233 11.1608 22.6508 11.7561 22.0193 12.135C22.6191 12.0628 23.2047 11.9015 23.7569 11.6566C23.3513 12.2645 22.8404 12.7949 22.2481 13.223Z" fill="currentColor"/>
</g>
<defs>
<clipPath id="clip0_1647_4547">
<rect width="32" height="32" fill="currentColor"/>
</clipPath>
</defs>
</svg>
